<svg xmlns="http://www.w3.org/2000/svg" xmlns:xlink="http://www.w3.org/1999/xlink" width="2000" zoomAndPan="magnify" viewBox="0 0 1500 937.499967" height="1250" preserveAspectRatio="xMidYMid meet" version="1.0"><defs><clipPath id="9b24170048"><path d="M 391.859375 58.714844 L 1108.097656 58.714844 L 1108.097656 233.84375 L 391.859375 233.84375 Z M 391.859375 58.714844 " clip-rule="nonzero"/></clipPath><clipPath id="16ef48ad68"><path d="M 391.859375 233.703125 L 391.859375 93.945312 C 391.859375 74.53125 409.648438 58.714844 431.507812 58.714844 L 1068.433594 58.714844 C 1090.292969 58.714844 1108.082031 74.53125 1108.082031 93.945312 L 1108.082031 198.589844 C 1108.082031 218.007812 1090.292969 233.820312 1068.433594 233.820312 L 620.679688 233.820312 C 620.679688 233.820312 391.972656 233.820312 391.972656 233.820312 Z M 391.859375 233.703125 " clip-rule="nonzero"/></clipPath><clipPath id="69391d3a1c"><path d="M 391.859375 379.179688 L 785 379.179688 L 785 556.035156 L 391.859375 556.035156 Z M 391.859375 379.179688 " clip-rule="nonzero"/></clipPath><clipPath id="dfd22ddc27"><path d="M 434.644531 379.292969 C 434.644531 379.292969 391.859375 379.292969 391.859375 418.824219 L 391.859375 517.769531 C 391.859375 538.929688 410.34375 556.023438 433.132812 556.023438 L 744.035156 556.023438 C 766.824219 556.023438 785.3125 538.929688 785.3125 517.769531 L 785.3125 417.3125 C 785.195312 396.269531 766.707031 379.179688 744.035156 379.179688 L 434.644531 379.179688 Z M 434.644531 379.292969 " clip-rule="nonzero"/></clipPath><clipPath id="632302971f"><path d="M 391.953125 700.609375 L 1108.199219 700.609375 L 1108.199219 878.976562 L 391.953125 878.976562 Z M 391.953125 700.609375 " clip-rule="nonzero"/></clipPath><clipPath id="bde8ea6ce5"><path d="M 621.125 700.722656 L 1064.117188 700.722656 C 1088.417969 700.722656 1108.066406 718.398438 1108.066406 740.257812 L 1108.066406 838.855469 C 1108.066406 860.710938 1088.300781 878.386719 1064.117188 878.386719 L 435.90625 878.386719 C 411.605469 878.269531 391.953125 860.597656 391.953125 838.738281 L 391.953125 700.609375 L 621.125 700.609375 Z M 621.125 700.722656 " clip-rule="nonzero"/></clipPath></defs><g clip-path="url(#9b24170048)"><g clip-path="url(#16ef48ad68)"><path fill="#ff0092" d="M 391.859375 58.714844 L 1108.097656 58.714844 L 1108.097656 233.84375 L 391.859375 233.84375 Z M 391.859375 58.714844 " fill-opacity="1" fill-rule="nonzero"/></g></g><g clip-path="url(#69391d3a1c)"><g clip-path="url(#dfd22ddc27)"><path fill="#ff0092" d="M 391.859375 379.179688 L 784.949219 379.179688 L 784.949219 556.035156 L 391.859375 556.035156 Z M 391.859375 379.179688 " fill-opacity="1" fill-rule="nonzero"/></g></g><g clip-path="url(#632302971f)"><g clip-path="url(#bde8ea6ce5)"><path fill="#ff0092" d="M 391.953125 700.609375 L 1108.199219 700.609375 L 1108.199219 878.28125 L 391.953125 878.28125 Z M 391.953125 700.609375 " fill-opacity="1" fill-rule="nonzero"/></g></g></svg>